<?xml version="1.0" standalone="no"?>
<!DOCTYPE svg PUBLIC "-//W3C//DTD SVG 20010904//EN"
 "http://www.w3.org/TR/2001/REC-SVG-20010904/DTD/svg10.dtd">
<svg version="1.0" xmlns="http://www.w3.org/2000/svg"
 width="512.000000pt" height="512.000000pt" viewBox="0 0 512.000000 512.000000"
 preserveAspectRatio="xMidYMid meet">
<metadata>
Created by potrace 1.11, written by Peter Selinger 2001-2013
</metadata>
<g transform="translate(0.000000,512.000000) scale(0.100000,-0.100000)"
fill="#000000" stroke="none">
<path d="M1230 5109 c-310 -24 -504 -87 -700 -227 -199 -142 -373 -370 -446
-585 -33 -97 -61 -262 -74 -432 -13 -189 -13 -2436 0 -2616 21 -264 61 -429
141 -579 146 -270 403 -494 672 -586 97 -33 262 -61 432 -74 187 -13 2423 -13
2610 0 267 20 434 60 585 141 270 146 494 403 586 672 33 97 61 262 74 432 13
187 13 2423 0 2610 -20 267 -60 434 -141 585 -146 270 -403 494 -672 586 -97
33 -262 61 -432 74 -167 12 -2478 11 -2635 -1z m1720 -1083 c69 -14 176 -42
239 -61 132 -41 177 -43 280 -14 103 29 156 23 227 -26 101 -69 218 -258 263
-424 32 -115 46 -264 33 -339 -32 -179 -145 -294 -320 -324 -141 -24 -235 23
-352 177 -118 156 -258 312 -316 354 -30 22 -94 54 -142 72 -76 28 -102 33
-212 37 -193 6 -301 -29 -399 -133 -85 -90 -128 -198 -138 -350 -11 -168 29
-390 101 -556 67 -154 214 -344 335 -433 60 -44 171 -100 241 -120 138 -41
331 -41 500 0 134 33 305 128 443 246 72 61 101 74 145 63 43 -11 116 -93 133
-151 53 -185 -69 -518 -224 -608 -23 -14 -84 -39 -136 -56 -51 -17 -152 -59
-225 -92 -326 -149 -450 -188 -667 -208 -463 -43 -919 120 -1266 453 -171 164
-318 401 -377 609 -77 269 -73 564 10 823 37 115 124 285 202 395 96 137 321
359 447 443 188 124 399 208 610 242 145 23 409 14 565 -19z"/>
</g>
</svg>
